<svg width="102" height="102" viewBox="0 0 102 102" fill="none" xmlns="http://www.w3.org/2000/svg">
<rect width="102" height="102" rx="51" fill="#131215"/>
<path fill-rule="evenodd" clip-rule="evenodd" d="M20.9316 28.4225C39.0284 18.2519 60.8037 20.9268 69.8146 23.6363C71.4946 24.1415 72.4376 25.8824 71.9208 27.5246C71.404 29.1669 69.6232 30.0887 67.9432 29.5835C59.8375 27.1462 40.0826 24.8367 24.1042 33.8167C23.7527 34.0143 23.555 34.3761 23.5735 34.7531C24.1805 47.1064 30.7489 70.6804 53.379 83.0029C54.9145 83.839 55.4659 85.7336 54.6106 87.2347C53.7552 88.7357 51.817 89.2747 50.2815 88.4386C24.9865 74.6651 17.8796 48.5655 17.2156 35.0516C17.0816 32.3243 18.527 29.774 20.9316 28.4225Z" fill="#A5FF11"/>
<path fill-rule="evenodd" clip-rule="evenodd" d="M81.3628 28.1704C83.1181 28.0802 84.6158 29.3981 84.708 31.1139C85.919 53.6431 73.9523 70.1664 66.2395 77.1557C64.3055 78.9082 61.417 79.5917 58.7743 78.481C53.2912 76.1765 47.9838 71.3284 43.6738 66.4933C39.2998 61.5863 35.6478 56.3419 33.5186 52.8208C32.6241 51.3417 33.1256 49.4339 34.6387 48.5595C36.1519 47.6852 38.1036 48.1754 38.998 49.6546C40.9547 52.8902 44.3842 57.8189 48.4728 62.4056C52.6253 67.0641 57.1615 71.0303 61.2885 72.7648C61.402 72.8125 61.6458 72.8339 61.9121 72.5926C68.6655 66.4728 79.4366 51.6264 78.3515 31.4404C78.2593 29.7246 79.6075 28.2605 81.3628 28.1704Z" fill="#A5FF11"/>
<path fill-rule="evenodd" clip-rule="evenodd" d="M47.1605 40.1102C41.4841 40.6824 36.7465 42.0163 34.2804 43.0036C32.6538 43.6549 30.7952 42.8939 30.129 41.3039C29.4627 39.7139 30.2412 37.897 31.8678 37.2457C34.9358 36.0173 40.2704 34.5496 46.5076 33.9209C52.7492 33.2917 60.1109 33.4804 67.1209 35.7556C70.1301 36.7322 72.2497 39.5564 72.0298 42.8029C71.574 49.5331 68.4143 56.4148 62.1197 64.3007C61.0384 65.6554 59.0385 65.8967 57.6527 64.8397C56.2669 63.7827 56.0201 61.8277 57.1014 60.4731C62.962 53.1309 65.338 47.4196 65.6785 42.3918C65.6966 42.1247 65.5249 41.7937 65.1152 41.6608C59.2258 39.7493 52.8325 39.5385 47.1605 40.1102Z" fill="#A5FF11"/>
<path fill-rule="evenodd" clip-rule="evenodd" d="M20.3249 27.4144C38.8263 17.0164 60.9889 19.7612 70.173 22.5228C72.4965 23.2215 73.7822 25.6183 73.0754 27.8646C72.3668 30.1162 69.914 31.3985 67.5846 30.698C63.6634 29.519 56.8324 28.3487 49.0136 28.5852C41.2231 28.8209 32.5319 30.4506 24.7833 34.7851C25.4063 46.9483 31.8977 69.9675 53.9712 81.9869C56.0893 83.1402 56.8392 85.7421 55.6676 87.7981C54.4918 89.8615 51.8151 90.6133 49.689 89.4556C23.8891 75.4071 16.6843 48.8329 16.0099 35.1075C15.8546 31.9461 17.5301 28.9852 20.3249 27.4144ZM22.5788 28.8633L23.567 30.5435C23.8964 31.1036 23.6937 31.8159 23.1143 32.1343C22.5349 32.4528 21.7981 32.2569 21.4686 31.6967L20.5441 30.1248C19.1341 31.3281 18.3283 33.1104 18.421 34.9968C19.0746 48.2991 26.0837 73.924 50.8737 87.4226C51.8187 87.9372 53.0185 87.6109 53.5533 86.6723C54.0924 85.7262 53.7395 84.5388 52.7865 84.0199C29.6526 71.423 22.9853 47.3755 22.3678 34.8089C22.328 33.9995 22.7544 33.2263 23.4975 32.8087C31.709 28.1937 40.8545 26.4976 48.9381 26.253C57.0178 26.0086 64.1171 27.2118 68.3015 28.47C69.3321 28.7799 70.441 28.2185 70.7661 27.1856C71.0928 26.1474 70.4925 25.0625 69.456 24.7508C60.791 22.1453 40.0609 19.5902 22.5788 28.8633ZM81.2985 27.0054C83.7326 26.8804 85.7869 28.7059 85.9131 31.0535C87.1474 54.0169 74.959 70.8531 67.0647 78.0069C64.8175 80.0433 61.4233 80.8667 58.2928 79.551C52.5519 77.1381 47.0987 72.123 42.7593 67.2549C38.3316 62.2877 34.6379 56.9841 32.4764 53.4097C31.251 51.3832 31.9328 48.7639 34.0193 47.5582C36.1138 46.3479 38.8097 47.0319 40.0397 49.0659C41.9641 52.2482 45.352 57.1177 49.3869 61.6441C53.3594 66.1007 57.5793 69.7894 61.342 71.5075C67.9272 65.412 78.1942 50.9994 77.1461 31.501C77.0199 29.1545 78.8656 27.1304 81.2985 27.0054ZM83.5025 31.1745C83.4443 30.0904 82.5031 29.2802 81.4266 29.3355C80.349 29.3908 79.4983 30.2948 79.5566 31.38C80.665 51.9996 69.6728 67.159 62.7373 73.4438C62.1288 73.9953 61.3736 74.0729 60.807 73.8348C56.4219 71.9917 51.7396 67.8581 47.5583 63.1673C43.416 58.5203 39.9448 53.5324 37.9559 50.2434C37.397 49.3192 36.1895 49.0226 35.2578 49.561C34.318 50.1041 33.9968 51.3004 34.5603 52.2322C36.6573 55.6999 40.2676 60.885 44.5879 65.7318C48.8686 70.5341 54.0301 75.2151 59.2553 77.4112C61.4103 78.317 63.7932 77.7733 65.4138 76.3046C72.9452 69.4798 84.6902 53.2695 83.5025 31.1745ZM46.3823 32.7612C52.7332 32.121 60.2805 32.3055 67.505 34.6503C71.01 35.7879 73.4913 39.0816 73.234 42.8798C72.7568 49.926 69.4515 57.0257 63.0751 65.0141C61.5854 66.8804 58.8205 67.2173 56.905 65.7563C54.9976 64.3014 54.6623 61.6196 56.1457 59.7611C61.7778 52.7052 64.0395 47.3083 64.4461 42.6765C58.8488 40.9187 52.7553 40.7199 47.2856 41.2713C41.7167 41.8327 37.0933 43.1408 34.7421 44.0822C32.4879 44.9848 29.9246 43.9248 29.0102 41.7426C28.0985 39.5667 29.1586 37.0683 31.4059 36.1686C34.5887 34.8942 40.0376 33.4008 46.3823 32.7612ZM66.7367 36.8623C59.9411 34.6567 52.765 34.4638 46.6327 35.0819C40.503 35.6998 35.2826 37.1419 32.3295 38.3243C31.3237 38.727 30.8267 39.8624 31.2475 40.8666C31.6655 41.8643 32.8196 42.3264 33.8185 41.9265C36.3994 40.8931 41.2513 39.5336 47.0352 38.9506C52.8165 38.3678 59.3955 38.5745 65.4993 40.5555C66.4302 40.8577 66.9365 41.6755 66.8827 42.4688C66.5208 47.8122 63.9994 53.7416 58.0568 61.1865C57.3777 62.0372 57.5361 63.2654 58.4002 63.9245C59.2562 64.5774 60.4912 64.4317 61.1641 63.5887C67.3769 55.8053 70.3909 49.1417 70.8254 42.7274C71.0079 40.0326 69.2501 37.678 66.7367 36.8623Z" fill="#A5FF11"/>
</svg>
