<svg width="259" height="70" viewBox="0 0 259 70" fill="none" xmlns="http://www.w3.org/2000/svg">
<g clip-path="url(#clip0_342_701)">
<path d="M93.1984 49.9964C90.8643 49.9964 88.75 49.508 86.8556 48.5312C84.9951 47.5219 83.5067 46.073 82.3904 44.1845C81.3079 42.2634 80.7666 39.968 80.7666 37.298C80.7666 34.5956 81.3755 32.3001 82.5933 30.4116C83.8111 28.5231 85.418 27.0905 87.4138 26.1137C89.4097 25.1043 91.5577 24.5996 93.858 24.5996C95.4141 24.5996 96.7842 24.8438 97.9681 25.3322C99.1859 25.8206 100.268 26.4393 101.216 27.1881L97.7144 31.828C96.5304 30.8837 95.3972 30.4116 94.3147 30.4116C92.5218 30.4116 91.0841 31.0302 90.0016 32.2675C88.953 33.5048 88.4286 35.1816 88.4286 37.298C88.4286 39.3819 88.953 41.0587 90.0016 42.3286C91.0841 43.5658 92.4373 44.1845 94.061 44.1845C94.8729 44.1845 95.6678 44.0217 96.4459 43.6961C97.2239 43.3379 97.9343 42.9146 98.577 42.4262L101.52 47.1149C100.268 48.1568 98.9153 48.9057 97.4607 49.3615C96.0061 49.7848 94.5853 49.9964 93.1984 49.9964Z" fill="#FCFCFC"/>
<path d="M109.657 49.9964C107.357 49.9964 105.53 49.2964 104.177 47.8963C102.824 46.4637 102.147 44.7217 102.147 42.6704C102.147 40.1308 103.264 38.1446 105.496 36.712C107.729 35.2793 111.332 34.3188 116.304 33.8304C116.237 32.7559 115.899 31.9094 115.29 31.2907C114.715 30.6395 113.734 30.3139 112.347 30.3139C111.298 30.3139 110.232 30.5093 109.15 30.9C108.067 31.2907 106.917 31.828 105.699 32.5117L103.01 27.7742C104.6 26.83 106.291 26.0648 108.084 25.4787C109.911 24.8927 111.805 24.5996 113.767 24.5996C116.981 24.5996 119.45 25.495 121.176 27.2858C122.901 29.0766 123.764 31.8279 123.764 35.5398V49.4104H117.675L117.167 46.9195H116.964C115.915 47.8312 114.782 48.5801 113.564 49.1662C112.38 49.7197 111.078 49.9964 109.657 49.9964ZM112.194 44.4287C113.04 44.4287 113.767 44.2496 114.376 43.8914C115.019 43.5007 115.662 42.996 116.304 42.3774V38.1283C113.666 38.4539 111.839 38.9749 110.824 39.6912C109.81 40.375 109.302 41.189 109.302 42.1332C109.302 42.9146 109.556 43.5007 110.063 43.8914C110.604 44.2496 111.315 44.4287 112.194 44.4287Z" fill="#FCFCFC"/>
<path d="M134.809 49.9967C132.238 49.9967 130.445 49.2641 129.43 47.7989C128.449 46.3012 127.959 44.3313 127.959 41.8893V15.1738H135.418V42.1823C135.418 42.9312 135.553 43.4522 135.824 43.7452C136.128 44.0383 136.433 44.1848 136.737 44.1848C136.906 44.1848 137.042 44.1848 137.143 44.1848C137.278 44.1522 137.448 44.1197 137.65 44.0871L138.564 49.4107C138.158 49.5735 137.634 49.7037 136.991 49.8014C136.382 49.9316 135.655 49.9967 134.809 49.9967Z" fill="#FCFCFC"/>
<path d="M140.363 49.411V25.1863H147.823V49.411H140.363ZM144.068 21.621C142.816 21.621 141.801 21.2791 141.023 20.5953C140.245 19.9116 139.856 18.9999 139.856 17.8603C139.856 16.7207 140.245 15.809 141.023 15.1253C141.801 14.4415 142.816 14.0996 144.068 14.0996C145.319 14.0996 146.334 14.4415 147.112 15.1253C147.89 15.809 148.279 16.7207 148.279 17.8603C148.279 18.9999 147.89 19.9116 147.112 20.5953C146.334 21.2791 145.319 21.621 144.068 21.621Z" fill="#FCFCFC"/>
<path d="M152.273 49.4104V25.1857H158.362L158.869 28.3115H159.072C160.121 27.3021 161.237 26.4393 162.421 25.7229C163.605 24.9741 165.026 24.5996 166.683 24.5996C168.476 24.5996 169.914 24.9578 170.996 25.6741C172.113 26.3579 172.992 27.3509 173.635 28.6533C174.751 27.5463 175.935 26.6021 177.187 25.8206C178.439 25.0066 179.893 24.5996 181.551 24.5996C184.257 24.5996 186.236 25.4787 187.488 27.237C188.773 28.9627 189.416 31.3395 189.416 34.3676V49.4104H181.957V35.2956C181.957 33.5374 181.703 32.3326 181.196 31.6814C180.722 31.0302 179.944 30.7046 178.861 30.7046C177.61 30.7046 176.172 31.4861 174.548 33.049V49.4104H167.089V35.2956C167.089 33.5374 166.836 32.3326 166.328 31.6814C165.855 31.0302 165.077 30.7046 163.994 30.7046C162.742 30.7046 161.322 31.4861 159.732 33.049V49.4104H152.273Z" fill="#FCFCFC"/>
<path d="M204.93 49.9964C202.529 49.9964 200.364 49.4918 198.435 48.4824C196.507 47.473 194.985 46.0241 193.869 44.1356C192.752 42.2472 192.194 39.968 192.194 37.298C192.194 34.6607 192.752 32.3978 193.869 30.5093C195.019 28.6208 196.507 27.1719 198.334 26.1625C200.161 25.1206 202.072 24.5996 204.068 24.5996C206.47 24.5996 208.448 25.1206 210.005 26.1625C211.594 27.1719 212.778 28.5557 213.557 30.3139C214.368 32.0396 214.774 34.0095 214.774 36.2236C214.774 36.8422 214.741 37.4608 214.673 38.0795C214.605 38.6656 214.538 39.1051 214.47 39.3982H199.4C199.738 41.1564 200.499 42.4588 201.683 43.3054C202.867 44.1194 204.288 44.5264 205.945 44.5264C207.738 44.5264 209.548 43.9891 211.375 42.9146L213.861 47.2614C212.576 48.108 211.138 48.7754 209.548 49.2638C207.958 49.7522 206.419 49.9964 204.93 49.9964ZM199.349 34.6607H208.432C208.432 33.3257 208.093 32.235 207.417 31.3884C206.774 30.5093 205.708 30.0697 204.22 30.0697C203.07 30.0697 202.038 30.4604 201.125 31.2419C200.211 31.9908 199.619 33.1304 199.349 34.6607Z" fill="#FCFCFC"/>
<path d="M217.814 49.4104V25.1857H223.903L224.411 29.4348H224.614C225.527 27.8068 226.627 26.6021 227.912 25.8206C229.197 25.0066 230.483 24.5996 231.768 24.5996C232.479 24.5996 233.071 24.6485 233.544 24.7461C234.018 24.8113 234.424 24.9252 234.762 25.088L233.544 31.2907C233.105 31.1605 232.665 31.0628 232.225 30.9977C231.819 30.9325 231.346 30.9 230.804 30.9C229.857 30.9 228.859 31.2419 227.811 31.9256C226.796 32.5768 225.95 33.7164 225.273 35.3444V49.4104H217.814Z" fill="#FCFCFC"/>
<path d="M246.23 49.9964C244.099 49.9964 242.086 49.508 240.192 48.5312C238.331 47.5219 236.826 46.073 235.676 44.1845C234.526 42.2634 233.951 39.968 233.951 37.298C233.951 34.5956 234.526 32.3001 235.676 30.4116C236.826 28.5231 238.331 27.0905 240.192 26.1137C242.086 25.1043 244.099 24.5996 246.23 24.5996C248.361 24.5996 250.357 25.1043 252.218 26.1137C254.078 27.0905 255.584 28.5231 256.734 30.4116C257.884 32.3001 258.459 34.5956 258.459 37.298C258.459 39.968 257.884 42.2634 256.734 44.1845C255.584 46.073 254.078 47.5219 252.218 48.5312C250.357 49.508 248.361 49.9964 246.23 49.9964ZM246.23 44.1845C247.752 44.1845 248.903 43.5658 249.681 42.3286C250.459 41.0587 250.848 39.3819 250.848 37.298C250.848 35.1816 250.459 33.5048 249.681 32.2675C248.903 31.0302 247.752 30.4116 246.23 30.4116C244.674 30.4116 243.507 31.0302 242.729 32.2675C241.985 33.5048 241.613 35.1816 241.613 37.298C241.613 39.3819 241.985 41.0587 242.729 42.3286C243.507 43.5658 244.674 44.1845 246.23 44.1845Z" fill="#FCFCFC"/>
<path fill-rule="evenodd" clip-rule="evenodd" d="M4.93164 8.42254C23.0284 -1.74807 44.8037 0.926842 53.8146 3.63634C55.4946 4.14151 56.4376 5.88236 55.9208 7.52462C55.404 9.16689 53.6232 10.0887 51.9432 9.58352C43.8375 7.14622 24.0826 4.83674 8.10423 13.8167C7.75266 14.0143 7.55497 14.3761 7.57349 14.7531C8.18047 27.1064 14.7489 50.6804 37.379 63.0029C38.9145 63.839 39.4659 65.7336 38.6106 67.2347C37.7552 68.7357 35.817 69.2747 34.2815 68.4386C8.98649 54.6651 1.87961 28.5655 1.21561 15.0516C1.0816 12.3243 2.52696 9.77399 4.93164 8.42254Z" fill="#FCFCFC"/>
<path fill-rule="evenodd" clip-rule="evenodd" d="M65.3628 8.17038C67.1181 8.08022 68.6158 9.3981 68.708 11.1139C69.919 33.6431 57.9523 50.1664 50.2395 57.1557C48.3055 58.9082 45.417 59.5917 42.7743 58.481C37.2912 56.1765 31.9838 51.3284 27.6738 46.4933C23.2998 41.5863 19.6478 36.3419 17.5186 32.8208C16.6241 31.3417 17.1256 29.4339 18.6387 28.5595C20.1519 27.6852 22.1036 28.1754 22.998 29.6546C24.9547 32.8902 28.3842 37.8189 32.4728 42.4056C36.6253 47.0641 41.1615 51.0303 45.2885 52.7648C45.402 52.8125 45.6458 52.8339 45.9121 52.5926C52.6655 46.4728 63.4366 31.6264 62.3515 11.4404C62.2593 9.72459 63.6075 8.26054 65.3628 8.17038Z" fill="#FCFCFC"/>
<path fill-rule="evenodd" clip-rule="evenodd" d="M31.1605 20.1102C25.4841 20.6824 20.7465 22.0163 18.2804 23.0036C16.6538 23.6549 14.7952 22.8939 14.129 21.3039C13.4627 19.7139 14.2412 17.897 15.8678 17.2457C18.9358 16.0173 24.2704 14.5496 30.5076 13.9209C36.7492 13.2917 44.1109 13.4804 51.1209 15.7556C54.1301 16.7322 56.2497 19.5564 56.0298 22.8029C55.574 29.5331 52.4143 36.4148 46.1197 44.3007C45.0384 45.6554 43.0385 45.8967 41.6527 44.8397C40.2669 43.7827 40.0201 41.8277 41.1014 40.4731C46.962 33.1309 49.338 27.4196 49.6785 22.3918C49.6966 22.1247 49.5249 21.7937 49.1152 21.6608C43.2258 19.7493 36.8325 19.5385 31.1605 20.1102Z" fill="#FCFCFC"/>
<path fill-rule="evenodd" clip-rule="evenodd" d="M4.32491 7.41444C22.8263 -2.98357 44.9889 -0.238763 54.173 2.52282C56.4965 3.22151 57.7822 5.61832 57.0754 7.86464C56.3668 10.1162 53.914 11.3985 51.5846 10.698C47.6634 9.51895 40.8324 8.3487 33.0136 8.58522C25.2231 8.82089 16.5319 10.4506 8.78326 14.7851C9.4063 26.9483 15.8977 49.9675 37.9712 61.9869C40.0893 63.1402 40.8392 65.7421 39.6676 67.7981C38.4918 69.8615 35.8151 70.6133 33.689 69.4556C7.88907 55.4071 0.684335 28.8329 0.00993925 15.1075C-0.145392 11.9461 1.53005 8.98517 4.32491 7.41444ZM6.57879 8.86332L7.56699 10.5435C7.89643 11.1036 7.69375 11.8159 7.11431 12.1343C6.53486 12.4528 5.79806 12.2569 5.46862 11.6967L4.54408 10.1248C3.13409 11.3281 2.32833 13.1104 2.42101 14.9968C3.07462 28.2991 10.0837 53.924 34.8737 67.4226C35.8187 67.9372 37.0185 67.6109 37.5533 66.6723C38.0924 65.7262 37.7395 64.5388 36.7865 64.0199C13.6526 51.423 6.98528 27.3755 6.36783 14.8089C6.32805 13.9995 6.75436 13.2263 7.49749 12.8087C15.709 8.1937 24.8545 6.49758 32.9381 6.25304C41.0178 6.00863 48.1171 7.21177 52.3015 8.47C53.3321 8.7799 54.441 8.21852 54.7661 7.18559C55.0928 6.14737 54.4925 5.0625 53.456 4.75084C44.791 2.14532 24.0609 -0.409823 6.57879 8.86332ZM65.2985 7.00542C67.7326 6.8804 69.7869 8.7059 69.9131 11.0535C71.1474 34.0169 58.959 50.8531 51.0647 58.0069C48.8175 60.0433 45.4233 60.8667 42.2928 59.551C36.5519 57.1381 31.0987 52.123 26.7593 47.2549C22.3316 42.2877 18.6379 36.9841 16.4764 33.4097C15.251 31.3832 15.9328 28.7639 18.0193 27.5582C20.1138 26.3479 22.8097 27.0319 24.0397 29.0659C25.9641 32.2482 29.352 37.1177 33.3869 41.6441C37.3594 46.1007 41.5793 49.7894 45.342 51.5075C51.9272 45.412 62.1942 30.9994 61.1461 11.501C61.0199 9.15448 62.8656 7.13038 65.2985 7.00542ZM67.5025 11.1745C67.4443 10.0904 66.5031 9.28017 65.4266 9.33546C64.349 9.39081 63.4983 10.2948 63.5566 11.38C64.665 31.9996 53.6728 47.159 46.7373 53.4438C46.1288 53.9953 45.3736 54.0729 44.807 53.8348C40.4219 51.9917 35.7396 47.8581 31.5583 43.1673C27.416 38.5203 23.9448 33.5324 21.9559 30.2434C21.397 29.3192 20.1895 29.0226 19.2578 29.561C18.318 30.1041 17.9968 31.3004 18.5603 32.2322C20.6573 35.6999 24.2676 40.885 28.5879 45.7318C32.8686 50.5341 38.0301 55.2151 43.2553 57.4112C45.4103 58.317 47.7932 57.7733 49.4138 56.3046C56.9452 49.4798 68.6902 33.2695 67.5025 11.1745ZM30.3823 12.7612C36.7332 12.121 44.2805 12.3055 51.505 14.6503C55.01 15.7879 57.4913 19.0816 57.234 22.8798C56.7568 29.926 53.4515 37.0257 47.0751 45.0141C45.5854 46.8804 42.8205 47.2173 40.905 45.7563C38.9976 44.3014 38.6623 41.6196 40.1457 39.7611C45.7778 32.7052 48.0395 27.3083 48.4461 22.6765C42.8488 20.9187 36.7553 20.7199 31.2856 21.2713C25.7167 21.8327 21.0933 23.1408 18.7421 24.0822C16.4879 24.9848 13.9246 23.9248 13.0102 21.7426C12.0985 19.5667 13.1586 17.0683 15.4059 16.1686C18.5887 14.8942 24.0376 13.4008 30.3823 12.7612ZM50.7367 16.8623C43.9411 14.6567 36.765 14.4638 30.6327 15.0819C24.503 15.6998 19.2826 17.1419 16.3295 18.3243C15.3237 18.727 14.8267 19.8624 15.2475 20.8666C15.6655 21.8643 16.8196 22.3264 17.8185 21.9265C20.3994 20.8931 25.2513 19.5336 31.0352 18.9506C36.8165 18.3678 43.3955 18.5745 49.4993 20.5555C50.4302 20.8577 50.9365 21.6755 50.8827 22.4688C50.5208 27.8122 47.9994 33.7416 42.0568 41.1865C41.3777 42.0372 41.5361 43.2654 42.4002 43.9245C43.2562 44.5774 44.4912 44.4317 45.1641 43.5887C51.3769 35.8053 54.3909 29.1417 54.8254 22.7274C55.0079 20.0326 53.2501 17.678 50.7367 16.8623Z" fill="#FCFCFC"/>
</g>
<defs>
<clipPath id="clip0_342_701">
<rect width="259" height="70" fill="white"/>
</clipPath>
</defs>
</svg>
